<svg width="531" height="65" viewBox="0 0 531 65" fill="none" xmlns="http://www.w3.org/2000/svg">
<line x1="33.75" y1="20.2812" x2="508.25" y2="20.2813" stroke="#D9D9D9" stroke-width="2"/>
<line x1="33.75" y1="20.2812" x2="198.083" y2="20.2813" stroke="#3558CF" stroke-width="2"/>
<rect x="15.3838" width="36.7324" height="36.7324" rx="18.3662" fill="#3558CF"/>
<path d="M27.2959 18.3658L31.9898 23.0597L40.2041 13.6719" stroke="#EAF6FF" stroke-width="2" stroke-linecap="round" stroke-linejoin="round"/>
<path d="M4.90934 59.8724C4.13468 59.8724 3.45801 59.7324 2.87934 59.4524C2.30068 59.1724 1.85734 58.7944 1.54934 58.3184C1.24134 57.8424 1.08734 57.3198 1.08734 56.7504H2.55734C2.55734 57.2544 2.76268 57.6791 3.17334 58.0244C3.59334 58.3698 4.17201 58.5424 4.90934 58.5424C5.65601 58.5424 6.21134 58.4024 6.57534 58.1224C6.93934 57.8331 7.12134 57.4598 7.12134 57.0024C7.12134 56.2371 6.58934 55.7611 5.52534 55.5744L3.74734 55.2384C2.11401 54.9398 1.29734 54.0811 1.29734 52.6624C1.29734 52.1118 1.43734 51.6218 1.71734 51.1924C1.99734 50.7538 2.39868 50.4131 2.92134 50.1704C3.44401 49.9184 4.06001 49.7924 4.76934 49.7924C5.53468 49.7924 6.19734 49.9278 6.75734 50.1984C7.32668 50.4691 7.76068 50.8424 8.05934 51.3184C8.36734 51.7944 8.52134 52.3264 8.52134 52.9144H7.05134C7.05134 52.5878 6.95801 52.2891 6.77134 52.0184C6.59401 51.7478 6.33268 51.5331 5.98734 51.3744C5.64201 51.2064 5.23601 51.1224 4.76934 51.1224C4.13468 51.1224 3.64001 51.2671 3.28534 51.5564C2.94001 51.8458 2.76734 52.2144 2.76734 52.6624C2.76734 53.3718 3.26201 53.8198 4.25134 54.0064L5.79134 54.2864C6.77134 54.4638 7.48068 54.7718 7.91934 55.2104C8.36734 55.6398 8.59134 56.2371 8.59134 57.0024C8.59134 57.5531 8.44668 58.0478 8.15734 58.4864C7.87734 58.9158 7.45734 59.2564 6.89734 59.5084C6.34668 59.7511 5.68401 59.8724 4.90934 59.8724ZM12.988 59.8724C12.4467 59.8724 11.9613 59.7511 11.532 59.5084C11.112 59.2564 10.7807 58.9064 10.538 58.4584C10.3047 58.0104 10.188 57.4971 10.188 56.9184V52.6904H11.574V56.8064C11.574 57.3104 11.7373 57.7304 12.064 58.0664C12.3907 58.4024 12.7967 58.5704 13.282 58.5704C13.6087 58.5704 13.9073 58.4911 14.178 58.3324C14.458 58.1738 14.6773 57.9591 14.836 57.6884C14.9947 57.4178 15.074 57.1238 15.074 56.8064V52.6904H16.46V59.7324H15.27L15.13 59.0044H15.06C14.864 59.2378 14.584 59.4431 14.22 59.6204C13.856 59.7884 13.4453 59.8724 12.988 59.8724ZM21.9904 59.8724C21.0851 59.8724 20.3571 59.5271 19.8064 58.8364H19.7364L19.5964 59.7324H18.4064V49.9324H19.7924V53.5584H19.8624C20.3944 52.8864 21.1038 52.5504 21.9904 52.5504C22.5971 52.5504 23.1478 52.7044 23.6424 53.0124C24.1371 53.3204 24.5244 53.7544 24.8044 54.3144C25.0938 54.8651 25.2384 55.4951 25.2384 56.2044C25.2384 56.9138 25.0938 57.5484 24.8044 58.1084C24.5244 58.6684 24.1371 59.1024 23.6424 59.4104C23.1478 59.7184 22.5971 59.8724 21.9904 59.8724ZM21.8224 58.5984C22.1864 58.5984 22.5224 58.5004 22.8304 58.3044C23.1478 58.0991 23.3951 57.8191 23.5724 57.4644C23.7591 57.1004 23.8524 56.6804 23.8524 56.2044C23.8524 55.7378 23.7591 55.3271 23.5724 54.9724C23.3951 54.6084 23.1478 54.3284 22.8304 54.1324C22.5224 53.9364 22.1864 53.8384 21.8224 53.8384C21.4584 53.8384 21.1178 53.9364 20.8004 54.1324C20.4924 54.3284 20.2451 54.6084 20.0584 54.9724C19.8811 55.3271 19.7924 55.7378 19.7924 56.2044C19.7924 56.6804 19.8811 57.1004 20.0584 57.4644C20.2451 57.8191 20.4924 58.0991 20.8004 58.3044C21.1178 58.5004 21.4584 58.5984 21.8224 58.5984ZM26.7036 59.7324V52.6904H27.8936L28.0336 53.4184H28.1036C28.281 53.1944 28.5283 52.9938 28.8456 52.8164C29.163 52.6391 29.5083 52.5504 29.8816 52.5504C30.367 52.5504 30.787 52.6671 31.1416 52.9004C31.5056 53.1338 31.7576 53.3904 31.8976 53.6704H31.9676C32.1543 53.3811 32.4483 53.1244 32.8496 52.9004C33.2603 52.6671 33.7176 52.5504 34.2216 52.5504C34.707 52.5504 35.141 52.6718 35.5236 52.9144C35.9156 53.1478 36.2236 53.4744 36.4476 53.8944C36.6716 54.3144 36.7836 54.7951 36.7836 55.3364V59.7324H35.3976V55.4204C35.3976 54.9351 35.267 54.5524 35.0056 54.2724C34.7536 53.9924 34.413 53.8524 33.9836 53.8524C33.5636 53.8524 33.1996 54.0064 32.8916 54.3144C32.5836 54.6131 32.4296 54.9818 32.4296 55.4204V59.7324H31.0576V55.4204C31.0576 54.9444 30.927 54.5664 30.6656 54.2864C30.4043 53.9971 30.059 53.8524 29.6296 53.8524C29.2096 53.8524 28.8456 54.0064 28.5376 54.3144C28.239 54.6131 28.0896 54.9818 28.0896 55.4204V59.7324H26.7036ZM40.0115 59.7324H38.6255V52.6904H40.0115V59.7324ZM40.0815 51.3604H38.5695V49.9604H40.0815V51.3604ZM43.9371 59.7324C43.4611 59.7324 43.0877 59.6064 42.8171 59.3544C42.5557 59.0931 42.4251 58.7431 42.4251 58.3044V53.9924H41.3051V52.6904H42.4251V50.6464H43.8111V52.6904H45.4211V53.9924H43.8111V58.0244C43.8111 58.3138 43.9557 58.4584 44.2451 58.4584H45.4211V59.7324H43.9371ZM48.8316 59.7324C48.3556 59.7324 47.9823 59.6064 47.7116 59.3544C47.4503 59.0931 47.3196 58.7431 47.3196 58.3044V53.9924H46.1996V52.6904H47.3196V50.6464H48.7056V52.6904H50.3156V53.9924H48.7056V58.0244C48.7056 58.3138 48.8503 58.4584 49.1396 58.4584H50.3156V59.7324H48.8316ZM54.6938 59.8724C54.0404 59.8724 53.4478 59.7184 52.9158 59.4104C52.3838 59.0931 51.9638 58.6591 51.6558 58.1084C51.3571 57.5484 51.2078 56.9138 51.2078 56.2044C51.2078 55.5044 51.3571 54.8791 51.6558 54.3284C51.9638 53.7684 52.3838 53.3344 52.9158 53.0264C53.4478 52.7091 54.0404 52.5504 54.6938 52.5504C55.3191 52.5504 55.8838 52.6998 56.3878 52.9984C56.9011 53.2971 57.3024 53.7078 57.5918 54.2304C57.8904 54.7531 58.0398 55.3411 58.0398 55.9944C58.0398 56.3211 58.0164 56.5684 57.9698 56.7364H52.5938C52.6591 57.3058 52.8878 57.7724 53.2798 58.1364C53.6718 58.4911 54.1431 58.6684 54.6938 58.6684C55.0858 58.6684 55.4311 58.5798 55.7298 58.4024C56.0284 58.2251 56.2524 57.9964 56.4018 57.7164H57.8438C57.6291 58.3418 57.2511 58.8598 56.7098 59.2704C56.1684 59.6718 55.4964 59.8724 54.6938 59.8724ZM56.6678 55.6724C56.6211 55.1124 56.4158 54.6504 56.0518 54.2864C55.6878 53.9224 55.2351 53.7404 54.6938 53.7404C54.1338 53.7404 53.6624 53.9224 53.2798 54.2864C52.8971 54.6504 52.6684 55.1124 52.5938 55.6724H56.6678ZM62.3858 59.8724C61.7791 59.8724 61.2285 59.7184 60.7338 59.4104C60.2391 59.1024 59.8471 58.6684 59.5578 58.1084C59.2685 57.5484 59.1238 56.9138 59.1238 56.2044C59.1238 55.4951 59.2685 54.8651 59.5578 54.3144C59.8471 53.7544 60.2391 53.3204 60.7338 53.0124C61.2285 52.7044 61.7791 52.5504 62.3858 52.5504C63.2725 52.5504 63.9818 52.8864 64.5138 53.5584H64.5838V49.9324H65.9698V59.7324H64.7798L64.6398 58.8364H64.5698C64.0285 59.5271 63.3005 59.8724 62.3858 59.8724ZM62.5538 58.5844C62.9178 58.5844 63.2538 58.4864 63.5618 58.2904C63.8791 58.0944 64.1265 57.8144 64.3038 57.4504C64.4905 57.0864 64.5838 56.6711 64.5838 56.2044C64.5838 55.7378 64.4905 55.3271 64.3038 54.9724C64.1265 54.6084 63.8791 54.3284 63.5618 54.1324C63.2538 53.9364 62.9178 53.8384 62.5538 53.8384C62.1805 53.8384 61.8398 53.9364 61.5318 54.1324C61.2238 54.3284 60.9765 54.6084 60.7898 54.9724C60.6125 55.3271 60.5238 55.7378 60.5238 56.2044C60.5238 56.6804 60.6125 57.1004 60.7898 57.4644C60.9765 57.8191 61.2238 58.0944 61.5318 58.2904C61.8398 58.4864 62.1805 58.5844 62.5538 58.5844Z" fill="#3558CF"/>
<path d="M179.717 18.3653C179.717 8.22293 187.939 0 198.081 0C208.226 0 216.449 8.22368 216.449 18.3681C216.449 28.5104 208.226 36.7324 198.084 36.7324C187.941 36.7324 179.717 28.5086 179.717 18.3653Z" fill="#3558CF"/>
<path d="M191.629 18.3658L196.323 23.0597L204.537 13.6719" stroke="#EAF6FF" stroke-width="2" stroke-linecap="round" stroke-linejoin="round"/>
<path d="M163.867 59.7324V49.9324H168.221C168.772 49.9324 169.271 50.0678 169.719 50.3384C170.167 50.5998 170.517 50.9684 170.769 51.4444C171.03 51.9204 171.161 52.4618 171.161 53.0684C171.161 53.6751 171.03 54.2211 170.769 54.7064C170.517 55.1824 170.167 55.5558 169.719 55.8264C169.271 56.0878 168.772 56.2184 168.221 56.2184H165.337V59.7324H163.867ZM168.179 54.8184C168.599 54.8184 168.954 54.6598 169.243 54.3424C169.542 54.0158 169.691 53.5911 169.691 53.0684C169.691 52.5458 169.546 52.1258 169.257 51.8084C168.968 51.4911 168.608 51.3324 168.179 51.3324H165.337V54.8184H168.179ZM172.723 59.7324V52.6904H173.913L174.053 53.3484H174.123C174.263 53.1338 174.431 52.9704 174.627 52.8584C174.832 52.7464 175.103 52.6904 175.439 52.6904H176.671V53.9924H175.565C175.098 53.9924 174.739 54.1184 174.487 54.3704C174.235 54.6224 174.109 54.9818 174.109 55.4484V59.7324H172.723ZM180.725 59.8724C180.072 59.8724 179.479 59.7184 178.947 59.4104C178.415 59.0931 177.995 58.6591 177.687 58.1084C177.388 57.5484 177.239 56.9138 177.239 56.2044C177.239 55.5044 177.388 54.8791 177.687 54.3284C177.995 53.7684 178.415 53.3344 178.947 53.0264C179.479 52.7091 180.072 52.5504 180.725 52.5504C181.378 52.5504 181.966 52.7091 182.489 53.0264C183.021 53.3344 183.436 53.7684 183.735 54.3284C184.043 54.8791 184.197 55.5044 184.197 56.2044C184.197 56.9138 184.043 57.5484 183.735 58.1084C183.436 58.6591 183.021 59.0931 182.489 59.4104C181.966 59.7184 181.378 59.8724 180.725 59.8724ZM180.725 58.5844C181.108 58.5844 181.458 58.4864 181.775 58.2904C182.102 58.0944 182.358 57.8144 182.545 57.4504C182.732 57.0864 182.825 56.6711 182.825 56.2044C182.825 55.7378 182.732 55.3271 182.545 54.9724C182.358 54.6084 182.102 54.3284 181.775 54.1324C181.458 53.9364 181.108 53.8384 180.725 53.8384C180.342 53.8384 179.988 53.9364 179.661 54.1324C179.344 54.3284 179.092 54.6084 178.905 54.9724C178.718 55.3271 178.625 55.7378 178.625 56.2044C178.625 56.6711 178.718 57.0864 178.905 57.4504C179.092 57.8144 179.344 58.0944 179.661 58.2904C179.988 58.4864 180.342 58.5844 180.725 58.5844ZM188.764 59.8724C188.111 59.8724 187.518 59.7184 186.986 59.4104C186.454 59.0931 186.034 58.6591 185.726 58.1084C185.427 57.5484 185.278 56.9138 185.278 56.2044C185.278 55.5044 185.427 54.8791 185.726 54.3284C186.034 53.7684 186.454 53.3344 186.986 53.0264C187.518 52.7091 188.111 52.5504 188.764 52.5504C189.613 52.5504 190.323 52.7884 190.892 53.2644C191.461 53.7404 191.83 54.3518 191.998 55.0984H190.598C190.477 54.7064 190.257 54.3984 189.94 54.1744C189.623 53.9504 189.231 53.8384 188.764 53.8384C188.381 53.8384 188.031 53.9364 187.714 54.1324C187.397 54.3284 187.145 54.6084 186.958 54.9724C186.771 55.3271 186.678 55.7378 186.678 56.2044C186.678 56.6711 186.771 57.0864 186.958 57.4504C187.145 57.8144 187.397 58.0944 187.714 58.2904C188.031 58.4864 188.381 58.5844 188.764 58.5844C189.231 58.5844 189.623 58.4678 189.94 58.2344C190.257 58.0011 190.477 57.6791 190.598 57.2684H191.998C191.83 58.0338 191.461 58.6591 190.892 59.1444C190.323 59.6298 189.613 59.8724 188.764 59.8724ZM196.475 59.8724C195.822 59.8724 195.229 59.7184 194.697 59.4104C194.165 59.0931 193.745 58.6591 193.437 58.1084C193.138 57.5484 192.989 56.9138 192.989 56.2044C192.989 55.5044 193.138 54.8791 193.437 54.3284C193.745 53.7684 194.165 53.3344 194.697 53.0264C195.229 52.7091 195.822 52.5504 196.475 52.5504C197.1 52.5504 197.665 52.6998 198.169 52.9984C198.682 53.2971 199.084 53.7078 199.373 54.2304C199.672 54.7531 199.821 55.3411 199.821 55.9944C199.821 56.3211 199.798 56.5684 199.751 56.7364H194.375C194.44 57.3058 194.669 57.7724 195.061 58.1364C195.453 58.4911 195.924 58.6684 196.475 58.6684C196.867 58.6684 197.212 58.5798 197.511 58.4024C197.81 58.2251 198.034 57.9964 198.183 57.7164H199.625C199.41 58.3418 199.032 58.8598 198.491 59.2704C197.95 59.6718 197.278 59.8724 196.475 59.8724ZM198.449 55.6724C198.402 55.1124 198.197 54.6504 197.833 54.2864C197.469 53.9224 197.016 53.7404 196.475 53.7404C195.915 53.7404 195.444 53.9224 195.061 54.2864C194.678 54.6504 194.45 55.1124 194.375 55.6724H198.449ZM203.705 59.8724C203.08 59.8724 202.543 59.7604 202.095 59.5364C201.656 59.3124 201.325 59.0324 201.101 58.6964C200.877 58.3511 200.765 58.0011 200.765 57.6464H202.137C202.137 57.9358 202.272 58.1831 202.543 58.3884C202.823 58.5938 203.21 58.6964 203.705 58.6964C204.2 58.6964 204.573 58.6124 204.825 58.4444C205.086 58.2671 205.217 58.0478 205.217 57.7864C205.217 57.5344 205.133 57.3338 204.965 57.1844C204.797 57.0351 204.522 56.9278 204.139 56.8624L202.991 56.6664C201.582 56.4238 200.877 55.7518 200.877 54.6504C200.877 54.0438 201.115 53.5444 201.591 53.1524C202.067 52.7511 202.748 52.5504 203.635 52.5504C204.223 52.5504 204.732 52.6578 205.161 52.8724C205.6 53.0871 205.931 53.3624 206.155 53.6984C206.388 54.0344 206.505 54.3891 206.505 54.7624H205.147C205.147 54.4731 205.007 54.2304 204.727 54.0344C204.456 53.8291 204.092 53.7264 203.635 53.7264C203.187 53.7264 202.842 53.8151 202.599 53.9924C202.366 54.1698 202.249 54.3891 202.249 54.6504C202.249 54.8651 202.328 55.0424 202.487 55.1824C202.655 55.3224 202.921 55.4251 203.285 55.4904L204.447 55.6864C205.175 55.8078 205.712 56.0411 206.057 56.3864C206.412 56.7318 206.589 57.1938 206.589 57.7724C206.589 58.3791 206.337 58.8831 205.833 59.2844C205.338 59.6764 204.629 59.8724 203.705 59.8724ZM210.391 59.8724C209.765 59.8724 209.229 59.7604 208.781 59.5364C208.342 59.3124 208.011 59.0324 207.787 58.6964C207.563 58.3511 207.451 58.0011 207.451 57.6464H208.823C208.823 57.9358 208.958 58.1831 209.229 58.3884C209.509 58.5938 209.896 58.6964 210.391 58.6964C210.885 58.6964 211.259 58.6124 211.511 58.4444C211.772 58.2671 211.903 58.0478 211.903 57.7864C211.903 57.5344 211.819 57.3338 211.651 57.1844C211.483 57.0351 211.207 56.9278 210.825 56.8624L209.677 56.6664C208.267 56.4238 207.563 55.7518 207.563 54.6504C207.563 54.0438 207.801 53.5444 208.277 53.1524C208.753 52.7511 209.434 52.5504 210.321 52.5504C210.909 52.5504 211.417 52.6578 211.847 52.8724C212.285 53.0871 212.617 53.3624 212.841 53.6984C213.074 54.0344 213.191 54.3891 213.191 54.7624H211.833C211.833 54.4731 211.693 54.2304 211.413 54.0344C211.142 53.8291 210.778 53.7264 210.321 53.7264C209.873 53.7264 209.527 53.8151 209.285 53.9924C209.051 54.1698 208.935 54.3891 208.935 54.6504C208.935 54.8651 209.014 55.0424 209.173 55.1824C209.341 55.3224 209.607 55.4251 209.971 55.4904L211.133 55.6864C211.861 55.8078 212.397 56.0411 212.743 56.3864C213.097 56.7318 213.275 57.1938 213.275 57.7724C213.275 58.3791 213.023 58.8831 212.519 59.2844C212.024 59.6764 211.315 59.8724 210.391 59.8724ZM216.068 59.7324H214.682V52.6904H216.068V59.7324ZM216.138 51.3604H214.626V49.9604H216.138V51.3604ZM217.95 59.7324V52.6904H219.14L219.28 53.4184H219.35C219.527 53.1944 219.798 52.9938 220.162 52.8164C220.526 52.6391 220.946 52.5504 221.422 52.5504C221.963 52.5504 222.444 52.6764 222.864 52.9284C223.293 53.1711 223.624 53.5164 223.858 53.9644C224.1 54.4124 224.222 54.9258 224.222 55.5044V59.7324H222.836V55.6164C222.836 55.1124 222.672 54.6924 222.346 54.3564C222.019 54.0204 221.613 53.8524 221.128 53.8524C220.801 53.8524 220.498 53.9318 220.218 54.0904C219.947 54.2491 219.732 54.4638 219.574 54.7344C219.415 55.0051 219.336 55.2991 219.336 55.6164V59.7324H217.95ZM229.165 62.6724C228.483 62.6724 227.9 62.5464 227.415 62.2944C226.939 62.0424 226.575 61.7251 226.323 61.3424C226.071 60.9691 225.935 60.5864 225.917 60.1944H227.317C227.354 60.5211 227.531 60.8058 227.849 61.0484C228.166 61.3004 228.605 61.4264 229.165 61.4264C229.743 61.4264 230.205 61.2631 230.551 60.9364C230.896 60.6098 231.069 60.1758 231.069 59.6344V58.5144H230.999C230.756 58.7851 230.453 58.9998 230.089 59.1584C229.725 59.3171 229.323 59.3964 228.885 59.3964C228.278 59.3964 227.727 59.2518 227.233 58.9624C226.747 58.6731 226.365 58.2671 226.085 57.7444C225.805 57.2218 225.665 56.6291 225.665 55.9664C225.665 55.3038 225.805 54.7158 226.085 54.2024C226.365 53.6798 226.747 53.2738 227.233 52.9844C227.727 52.6951 228.278 52.5504 228.885 52.5504C229.333 52.5504 229.743 52.6391 230.117 52.8164C230.499 52.9938 230.807 53.2318 231.041 53.5304H231.111L231.251 52.6904H232.455V59.6484C232.455 60.2458 232.324 60.7731 232.063 61.2304C231.801 61.6878 231.419 62.0424 230.915 62.2944C230.42 62.5464 229.837 62.6724 229.165 62.6724ZM229.067 58.1364C229.44 58.1364 229.776 58.0478 230.075 57.8704C230.383 57.6838 230.625 57.4271 230.803 57.1004C230.98 56.7644 231.069 56.3864 231.069 55.9664C231.069 55.5464 230.98 55.1731 230.803 54.8464C230.625 54.5198 230.383 54.2678 230.075 54.0904C229.776 53.9038 229.44 53.8104 229.067 53.8104C228.488 53.8104 228.007 54.0111 227.625 54.4124C227.251 54.8138 227.065 55.3318 227.065 55.9664C227.065 56.6104 227.251 57.1331 227.625 57.5344C228.007 57.9358 228.488 58.1364 229.067 58.1364Z" fill="#3558CF"/>
<rect x="341.051" width="36.7324" height="36.7324" rx="18.3662" fill="#D9D9D9"/>
<path d="M359.327 24.5272C358.527 24.5272 357.823 24.3725 357.215 24.0632C356.618 23.7539 356.154 23.3379 355.823 22.8152C355.503 22.2819 355.343 21.6845 355.343 21.0232H357.423C357.423 21.4605 357.594 21.8285 357.935 22.1272C358.287 22.4152 358.751 22.5592 359.327 22.5592C359.882 22.5592 360.319 22.4205 360.639 22.1432C360.97 21.8552 361.135 21.5032 361.135 21.0872C361.135 20.6179 360.97 20.2392 360.639 19.9512C360.308 19.6632 359.855 19.5192 359.279 19.5192H358.527V17.7592H359.279C359.812 17.7592 360.228 17.6205 360.527 17.3432C360.826 17.0659 360.975 16.7192 360.975 16.3032C360.975 15.9299 360.82 15.6152 360.511 15.3592C360.212 15.0925 359.807 14.9592 359.295 14.9592C358.794 14.9592 358.383 15.0979 358.063 15.3752C357.743 15.6419 357.583 15.9672 357.583 16.3512H355.503C355.503 15.7432 355.663 15.1885 355.983 14.6872C356.314 14.1752 356.767 13.7699 357.343 13.4712C357.93 13.1619 358.602 13.0072 359.359 13.0072C360.084 13.0072 360.724 13.1512 361.279 13.4392C361.844 13.7272 362.282 14.1219 362.591 14.6232C362.9 15.1139 363.055 15.6525 363.055 16.2392C363.055 16.8259 362.89 17.3325 362.559 17.7592C362.239 18.1752 361.882 18.4579 361.487 18.6072V18.6872C361.924 18.8365 362.319 19.1352 362.671 19.5832C363.034 20.0312 363.215 20.5805 363.215 21.2312C363.215 21.8285 363.05 22.3779 362.719 22.8792C362.399 23.3805 361.946 23.7805 361.359 24.0792C360.772 24.3779 360.095 24.5272 359.327 24.5272Z" fill="white"/>
<path d="M336.663 59.7324H330.363V49.9324H336.663V50.9824H331.483V54.2724H336.383V55.3224H331.483V58.6824H336.663V59.7324ZM340.653 59.8724C340.093 59.8724 339.598 59.7744 339.169 59.5784C338.749 59.3731 338.422 59.1071 338.189 58.7804C337.965 58.4444 337.853 58.0851 337.853 57.7024H338.903C338.903 58.0291 339.057 58.3091 339.365 58.5424C339.682 58.7758 340.111 58.8924 340.653 58.8924C341.185 58.8924 341.595 58.7944 341.885 58.5984C342.183 58.3931 342.333 58.1411 342.333 57.8424C342.333 57.5624 342.235 57.3384 342.039 57.1704C341.852 56.9931 341.553 56.8671 341.143 56.7924L339.953 56.5824C338.646 56.3584 337.993 55.7051 337.993 54.6224C337.993 54.0344 338.212 53.5491 338.651 53.1664C339.099 52.7838 339.743 52.5924 340.583 52.5924C341.124 52.5924 341.6 52.6951 342.011 52.9004C342.431 53.0964 342.753 53.3624 342.977 53.6984C343.201 54.0344 343.313 54.3891 343.313 54.7624H342.263C342.263 54.4358 342.109 54.1558 341.801 53.9224C341.493 53.6891 341.087 53.5724 340.583 53.5724C340.088 53.5724 339.705 53.6751 339.435 53.8804C339.173 54.0764 339.043 54.3238 339.043 54.6224C339.043 54.8838 339.127 55.0938 339.295 55.2524C339.472 55.4111 339.761 55.5278 340.163 55.6024L341.353 55.8124C342.053 55.9338 342.566 56.1624 342.893 56.4984C343.219 56.8344 343.383 57.2824 343.383 57.8424C343.383 58.4304 343.145 58.9158 342.669 59.2984C342.202 59.6811 341.53 59.8724 340.653 59.8724ZM347.792 59.8724C347.167 59.8724 346.597 59.7184 346.084 59.4104C345.571 59.1024 345.165 58.6731 344.866 58.1224C344.577 57.5718 344.432 56.9418 344.432 56.2324C344.432 55.5231 344.577 54.8931 344.866 54.3424C345.165 53.7918 345.571 53.3624 346.084 53.0544C346.597 52.7464 347.167 52.5924 347.792 52.5924C348.567 52.5924 349.229 52.8071 349.78 53.2364C350.331 53.6564 350.695 54.2351 350.872 54.9724H349.822C349.682 54.5244 349.43 54.1791 349.066 53.9364C348.711 53.6938 348.287 53.5724 347.792 53.5724C347.372 53.5724 346.985 53.6844 346.63 53.9084C346.275 54.1231 345.995 54.4358 345.79 54.8464C345.585 55.2478 345.482 55.7098 345.482 56.2324C345.482 56.7551 345.585 57.2218 345.79 57.6324C345.995 58.0338 346.275 58.3464 346.63 58.5704C346.985 58.7851 347.372 58.8924 347.792 58.8924C348.296 58.8924 348.725 58.7664 349.08 58.5144C349.435 58.2624 349.682 57.8984 349.822 57.4224H350.872C350.695 58.1878 350.331 58.7898 349.78 59.2284C349.229 59.6578 348.567 59.8724 347.792 59.8724ZM354.514 59.8724C353.786 59.8724 353.194 59.6718 352.736 59.2704C352.288 58.8598 352.064 58.3371 352.064 57.7024C352.064 57.0024 352.293 56.4564 352.75 56.0644C353.217 55.6631 353.922 55.4624 354.864 55.4624H356.754V55.2524C356.754 54.7298 356.605 54.3191 356.306 54.0204C356.008 53.7218 355.597 53.5724 355.074 53.5724C354.57 53.5724 354.16 53.6891 353.842 53.9224C353.534 54.1464 353.362 54.4264 353.324 54.7624H352.274C352.302 54.3798 352.428 54.0251 352.652 53.6984C352.876 53.3624 353.194 53.0964 353.604 52.9004C354.024 52.6951 354.514 52.5924 355.074 52.5924C355.924 52.5924 356.591 52.8304 357.076 53.3064C357.562 53.7731 357.804 54.4218 357.804 55.2524V59.7324H356.894L356.754 58.8924H356.684C356.526 59.1444 356.25 59.3731 355.858 59.5784C355.476 59.7744 355.028 59.8724 354.514 59.8724ZM354.514 58.8924C355.214 58.8924 355.76 58.7011 356.152 58.3184C356.554 57.9264 356.754 57.3944 356.754 56.7224V56.4424H354.864C354.267 56.4424 353.824 56.5591 353.534 56.7924C353.254 57.0258 353.114 57.3291 353.114 57.7024C353.114 58.0571 353.236 58.3464 353.478 58.5704C353.721 58.7851 354.066 58.8924 354.514 58.8924ZM360.888 59.7324H359.838V49.9324H360.888V59.7324ZM365.083 59.8724C364.355 59.8724 363.762 59.6718 363.305 59.2704C362.857 58.8598 362.633 58.3371 362.633 57.7024C362.633 57.0024 362.861 56.4564 363.319 56.0644C363.785 55.6631 364.49 55.4624 365.433 55.4624H367.323V55.2524C367.323 54.7298 367.173 54.3191 366.875 54.0204C366.576 53.7218 366.165 53.5724 365.643 53.5724C365.139 53.5724 364.728 53.6891 364.411 53.9224C364.103 54.1464 363.93 54.4264 363.893 54.7624H362.843C362.871 54.3798 362.997 54.0251 363.221 53.6984C363.445 53.3624 363.762 53.0964 364.173 52.9004C364.593 52.6951 365.083 52.5924 365.643 52.5924C366.492 52.5924 367.159 52.8304 367.645 53.3064C368.13 53.7731 368.373 54.4218 368.373 55.2524V59.7324H367.463L367.323 58.8924H367.253C367.094 59.1444 366.819 59.3731 366.427 59.5784C366.044 59.7744 365.596 59.8724 365.083 59.8724ZM365.083 58.8924C365.783 58.8924 366.329 58.7011 366.721 58.3184C367.122 57.9264 367.323 57.3944 367.323 56.7224V56.4424H365.433C364.835 56.4424 364.392 56.5591 364.103 56.7924C363.823 57.0258 363.683 57.3291 363.683 57.7024C363.683 58.0571 363.804 58.3464 364.047 58.5704C364.289 58.7851 364.635 58.8924 365.083 58.8924ZM371.95 59.7324C371.567 59.7324 371.259 59.6251 371.026 59.4104C370.802 59.1864 370.69 58.8971 370.69 58.5424V53.7124H369.57V52.7324H370.69V50.7724H371.74V52.7324H373.35V53.7124H371.74V58.3324C371.74 58.6124 371.88 58.7524 372.16 58.7524H373.35V59.7324H371.95ZM377.624 59.8724C376.999 59.8724 376.429 59.7184 375.916 59.4104C375.403 59.1024 374.997 58.6731 374.698 58.1224C374.409 57.5718 374.264 56.9418 374.264 56.2324C374.264 55.5231 374.409 54.8931 374.698 54.3424C374.997 53.7918 375.403 53.3624 375.916 53.0544C376.429 52.7464 376.999 52.5924 377.624 52.5924C378.221 52.5924 378.767 52.7371 379.262 53.0264C379.757 53.3158 380.144 53.7171 380.424 54.2304C380.704 54.7344 380.844 55.3084 380.844 55.9524C380.844 56.3258 380.821 56.5824 380.774 56.7224H375.314C375.379 57.3758 375.631 57.9031 376.07 58.3044C376.509 58.6964 377.027 58.8924 377.624 58.8924C378.044 58.8924 378.417 58.7944 378.744 58.5984C379.08 58.4024 379.337 58.1271 379.514 57.7724H380.634C380.391 58.4444 380.009 58.9624 379.486 59.3264C378.973 59.6904 378.352 59.8724 377.624 59.8724ZM379.794 55.7424C379.757 55.1078 379.533 54.5898 379.122 54.1884C378.721 53.7778 378.221 53.5724 377.624 53.5724C376.999 53.5724 376.476 53.7778 376.056 54.1884C375.636 54.5898 375.389 55.1078 375.314 55.7424H379.794ZM385.181 59.8724C384.575 59.8724 384.024 59.7184 383.529 59.4104C383.044 59.1024 382.661 58.6731 382.381 58.1224C382.101 57.5718 381.961 56.9418 381.961 56.2324C381.961 55.5231 382.101 54.8931 382.381 54.3424C382.661 53.7918 383.044 53.3624 383.529 53.0544C384.024 52.7464 384.575 52.5924 385.181 52.5924C385.657 52.5924 386.077 52.6904 386.441 52.8864C386.805 53.0731 387.132 53.3484 387.421 53.7124H387.491V49.9324H388.541V59.7324H387.631L387.491 58.7524H387.421C387.132 59.1164 386.805 59.3964 386.441 59.5924C386.077 59.7791 385.657 59.8724 385.181 59.8724ZM385.251 58.8924C385.653 58.8924 386.021 58.7804 386.357 58.5564C386.703 58.3324 386.978 58.0198 387.183 57.6184C387.389 57.2171 387.491 56.7551 387.491 56.2324C387.491 55.7098 387.389 55.2478 387.183 54.8464C386.978 54.4451 386.703 54.1324 386.357 53.9084C386.021 53.6844 385.653 53.5724 385.251 53.5724C384.85 53.5724 384.477 53.6844 384.131 53.9084C383.795 54.1324 383.525 54.4451 383.319 54.8464C383.114 55.2478 383.011 55.7098 383.011 56.2324C383.011 56.7551 383.114 57.2171 383.319 57.6184C383.525 58.0198 383.795 58.3324 384.131 58.5564C384.477 58.7804 384.85 58.8924 385.251 58.8924Z" fill="#D9D9D9"/>
<rect x="489.885" width="36.73" height="36.7324" rx="18.365" fill="#D9D9D9"/>
<path d="M511.151 24.3672H509.071V22.1112H503.967V20.3512L507.983 13.1672H511.151V20.2392H512.447V22.1112H511.151V24.3672ZM506.271 20.1592V20.2392H509.071V15.7112H508.751L506.271 20.1592Z" fill="white"/>
<path d="M491.874 59.8724C491.016 59.8724 490.227 59.6624 489.508 59.2424C488.79 58.8131 488.22 58.2158 487.8 57.4504C487.39 56.6851 487.184 55.8124 487.184 54.8324C487.184 53.8524 487.39 52.9798 487.8 52.2144C488.22 51.4491 488.79 50.8564 489.508 50.4364C490.227 50.0071 491.016 49.7924 491.874 49.7924C492.929 49.7924 493.844 50.0864 494.618 50.6744C495.402 51.2624 495.934 52.0651 496.214 53.0824H495.024C494.782 52.3824 494.38 51.8364 493.82 51.4444C493.26 51.0431 492.612 50.8424 491.874 50.8424C491.221 50.8424 490.619 51.0104 490.068 51.3464C489.527 51.6824 489.098 52.1538 488.78 52.7604C488.463 53.3671 488.304 54.0578 488.304 54.8324C488.304 55.6071 488.463 56.2978 488.78 56.9044C489.098 57.5111 489.527 57.9824 490.068 58.3184C490.619 58.6544 491.221 58.8224 491.874 58.8224C492.612 58.8224 493.26 58.6218 493.82 58.2204C494.38 57.8098 494.782 57.2404 495.024 56.5124H496.214C495.934 57.5578 495.402 58.3791 494.618 58.9764C493.844 59.5738 492.929 59.8724 491.874 59.8724ZM498.811 59.7324H497.761V49.9324H498.811V59.7324ZM503.775 59.8724C503.15 59.8724 502.581 59.7184 502.067 59.4104C501.554 59.1024 501.148 58.6731 500.849 58.1224C500.56 57.5718 500.415 56.9418 500.415 56.2324C500.415 55.5231 500.56 54.8931 500.849 54.3424C501.148 53.7918 501.554 53.3624 502.067 53.0544C502.581 52.7464 503.15 52.5924 503.775 52.5924C504.401 52.5924 504.97 52.7464 505.483 53.0544C505.997 53.3624 506.398 53.7918 506.687 54.3424C506.986 54.8931 507.135 55.5231 507.135 56.2324C507.135 56.9418 506.986 57.5718 506.687 58.1224C506.398 58.6731 505.997 59.1024 505.483 59.4104C504.97 59.7184 504.401 59.8724 503.775 59.8724ZM503.775 58.8924C504.195 58.8924 504.583 58.7851 504.937 58.5704C505.292 58.3464 505.572 58.0338 505.777 57.6324C505.983 57.2218 506.085 56.7551 506.085 56.2324C506.085 55.7098 505.983 55.2478 505.777 54.8464C505.572 54.4358 505.292 54.1231 504.937 53.9084C504.583 53.6844 504.195 53.5724 503.775 53.5724C503.355 53.5724 502.968 53.6844 502.613 53.9084C502.259 54.1231 501.979 54.4358 501.773 54.8464C501.568 55.2478 501.465 55.7098 501.465 56.2324C501.465 56.7551 501.568 57.2218 501.773 57.6324C501.979 58.0338 502.259 58.3464 502.613 58.5704C502.968 58.7851 503.355 58.8924 503.775 58.8924ZM510.909 59.8724C510.349 59.8724 509.855 59.7744 509.425 59.5784C509.005 59.3731 508.679 59.1071 508.445 58.7804C508.221 58.4444 508.109 58.0851 508.109 57.7024H509.159C509.159 58.0291 509.313 58.3091 509.621 58.5424C509.939 58.7758 510.368 58.8924 510.909 58.8924C511.441 58.8924 511.852 58.7944 512.141 58.5984C512.44 58.3931 512.589 58.1411 512.589 57.8424C512.589 57.5624 512.491 57.3384 512.295 57.1704C512.109 56.9931 511.81 56.8671 511.399 56.7924L510.209 56.5824C508.903 56.3584 508.249 55.7051 508.249 54.6224C508.249 54.0344 508.469 53.5491 508.907 53.1664C509.355 52.7838 509.999 52.5924 510.839 52.5924C511.381 52.5924 511.857 52.6951 512.267 52.9004C512.687 53.0964 513.009 53.3624 513.233 53.6984C513.457 54.0344 513.569 54.3891 513.569 54.7624H512.519C512.519 54.4358 512.365 54.1558 512.057 53.9224C511.749 53.6891 511.343 53.5724 510.839 53.5724C510.345 53.5724 509.962 53.6751 509.691 53.8804C509.43 54.0764 509.299 54.3238 509.299 54.6224C509.299 54.8838 509.383 55.0938 509.551 55.2524C509.729 55.4111 510.018 55.5278 510.419 55.6024L511.609 55.8124C512.309 55.9338 512.823 56.1624 513.149 56.4984C513.476 56.8344 513.639 57.2824 513.639 57.8424C513.639 58.4304 513.401 58.9158 512.925 59.2984C512.459 59.6811 511.787 59.8724 510.909 59.8724ZM518.049 59.8724C517.424 59.8724 516.854 59.7184 516.341 59.4104C515.828 59.1024 515.422 58.6731 515.123 58.1224C514.834 57.5718 514.689 56.9418 514.689 56.2324C514.689 55.5231 514.834 54.8931 515.123 54.3424C515.422 53.7918 515.828 53.3624 516.341 53.0544C516.854 52.7464 517.424 52.5924 518.049 52.5924C518.646 52.5924 519.192 52.7371 519.687 53.0264C520.182 53.3158 520.569 53.7171 520.849 54.2304C521.129 54.7344 521.269 55.3084 521.269 55.9524C521.269 56.3258 521.246 56.5824 521.199 56.7224H515.739C515.804 57.3758 516.056 57.9031 516.495 58.3044C516.934 58.6964 517.452 58.8924 518.049 58.8924C518.469 58.8924 518.842 58.7944 519.169 58.5984C519.505 58.4024 519.762 58.1271 519.939 57.7724H521.059C520.816 58.4444 520.434 58.9624 519.911 59.3264C519.398 59.6904 518.777 59.8724 518.049 59.8724ZM520.219 55.7424C520.182 55.1078 519.958 54.5898 519.547 54.1884C519.146 53.7778 518.646 53.5724 518.049 53.5724C517.424 53.5724 516.901 53.7778 516.481 54.1884C516.061 54.5898 515.814 55.1078 515.739 55.7424H520.219ZM525.606 59.8724C525 59.8724 524.449 59.7184 523.954 59.4104C523.469 59.1024 523.086 58.6731 522.806 58.1224C522.526 57.5718 522.386 56.9418 522.386 56.2324C522.386 55.5231 522.526 54.8931 522.806 54.3424C523.086 53.7918 523.469 53.3624 523.954 53.0544C524.449 52.7464 525 52.5924 525.606 52.5924C526.082 52.5924 526.502 52.6904 526.866 52.8864C527.23 53.0731 527.557 53.3484 527.846 53.7124H527.916V49.9324H528.966V59.7324H528.056L527.916 58.7524H527.846C527.557 59.1164 527.23 59.3964 526.866 59.5924C526.502 59.7791 526.082 59.8724 525.606 59.8724ZM525.676 58.8924C526.078 58.8924 526.446 58.7804 526.782 58.5564C527.128 58.3324 527.403 58.0198 527.608 57.6184C527.814 57.2171 527.916 56.7551 527.916 56.2324C527.916 55.7098 527.814 55.2478 527.608 54.8464C527.403 54.4451 527.128 54.1324 526.782 53.9084C526.446 53.6844 526.078 53.5724 525.676 53.5724C525.275 53.5724 524.902 53.6844 524.556 53.9084C524.22 54.1324 523.95 54.4451 523.744 54.8464C523.539 55.2478 523.436 55.7098 523.436 56.2324C523.436 56.7551 523.539 57.2171 523.744 57.6184C523.95 58.0198 524.22 58.3324 524.556 58.5564C524.902 58.7804 525.275 58.8924 525.676 58.8924Z" fill="#D9D9D9"/>
</svg>
