<svg width="531" height="65" viewBox="0 0 531 65" fill="none" xmlns="http://www.w3.org/2000/svg">
<line x1="33.75" y1="20.2812" x2="508.25" y2="20.2813" stroke="#D9D9D9" stroke-width="2"/>
<line x1="33.75" y1="20.2812" x2="359.417" y2="20.2813" stroke="#3558CF" stroke-width="2"/>
<rect x="15.3838" width="36.7324" height="36.7324" rx="18.3662" fill="#3558CF"/>
<path d="M27.2959 18.3658L31.9898 23.0597L40.2041 13.6719" stroke="#EAF6FF" stroke-width="2" stroke-linecap="round" stroke-linejoin="round"/>
<path d="M4.90934 59.8724C4.13468 59.8724 3.45801 59.7324 2.87934 59.4524C2.30068 59.1724 1.85734 58.7944 1.54934 58.3184C1.24134 57.8424 1.08734 57.3198 1.08734 56.7504H2.55734C2.55734 57.2544 2.76268 57.6791 3.17334 58.0244C3.59334 58.3698 4.17201 58.5424 4.90934 58.5424C5.65601 58.5424 6.21134 58.4024 6.57534 58.1224C6.93934 57.8331 7.12134 57.4598 7.12134 57.0024C7.12134 56.2371 6.58934 55.7611 5.52534 55.5744L3.74734 55.2384C2.11401 54.9398 1.29734 54.0811 1.29734 52.6624C1.29734 52.1118 1.43734 51.6218 1.71734 51.1924C1.99734 50.7538 2.39868 50.4131 2.92134 50.1704C3.44401 49.9184 4.06001 49.7924 4.76934 49.7924C5.53468 49.7924 6.19734 49.9278 6.75734 50.1984C7.32668 50.4691 7.76068 50.8424 8.05934 51.3184C8.36734 51.7944 8.52134 52.3264 8.52134 52.9144H7.05134C7.05134 52.5878 6.95801 52.2891 6.77134 52.0184C6.59401 51.7478 6.33268 51.5331 5.98734 51.3744C5.64201 51.2064 5.23601 51.1224 4.76934 51.1224C4.13468 51.1224 3.64001 51.2671 3.28534 51.5564C2.94001 51.8458 2.76734 52.2144 2.76734 52.6624C2.76734 53.3718 3.26201 53.8198 4.25134 54.0064L5.79134 54.2864C6.77134 54.4638 7.48068 54.7718 7.91934 55.2104C8.36734 55.6398 8.59134 56.2371 8.59134 57.0024C8.59134 57.5531 8.44668 58.0478 8.15734 58.4864C7.87734 58.9158 7.45734 59.2564 6.89734 59.5084C6.34668 59.7511 5.68401 59.8724 4.90934 59.8724ZM12.988 59.8724C12.4467 59.8724 11.9613 59.7511 11.532 59.5084C11.112 59.2564 10.7807 58.9064 10.538 58.4584C10.3047 58.0104 10.188 57.4971 10.188 56.9184V52.6904H11.574V56.8064C11.574 57.3104 11.7373 57.7304 12.064 58.0664C12.3907 58.4024 12.7967 58.5704 13.282 58.5704C13.6087 58.5704 13.9073 58.4911 14.178 58.3324C14.458 58.1738 14.6773 57.9591 14.836 57.6884C14.9947 57.4178 15.074 57.1238 15.074 56.8064V52.6904H16.46V59.7324H15.27L15.13 59.0044H15.06C14.864 59.2378 14.584 59.4431 14.22 59.6204C13.856 59.7884 13.4453 59.8724 12.988 59.8724ZM21.9904 59.8724C21.0851 59.8724 20.3571 59.5271 19.8064 58.8364H19.7364L19.5964 59.7324H18.4064V49.9324H19.7924V53.5584H19.8624C20.3944 52.8864 21.1038 52.5504 21.9904 52.5504C22.5971 52.5504 23.1478 52.7044 23.6424 53.0124C24.1371 53.3204 24.5244 53.7544 24.8044 54.3144C25.0938 54.8651 25.2384 55.4951 25.2384 56.2044C25.2384 56.9138 25.0938 57.5484 24.8044 58.1084C24.5244 58.6684 24.1371 59.1024 23.6424 59.4104C23.1478 59.7184 22.5971 59.8724 21.9904 59.8724ZM21.8224 58.5984C22.1864 58.5984 22.5224 58.5004 22.8304 58.3044C23.1478 58.0991 23.3951 57.8191 23.5724 57.4644C23.7591 57.1004 23.8524 56.6804 23.8524 56.2044C23.8524 55.7378 23.7591 55.3271 23.5724 54.9724C23.3951 54.6084 23.1478 54.3284 22.8304 54.1324C22.5224 53.9364 22.1864 53.8384 21.8224 53.8384C21.4584 53.8384 21.1178 53.9364 20.8004 54.1324C20.4924 54.3284 20.2451 54.6084 20.0584 54.9724C19.8811 55.3271 19.7924 55.7378 19.7924 56.2044C19.7924 56.6804 19.8811 57.1004 20.0584 57.4644C20.2451 57.8191 20.4924 58.0991 20.8004 58.3044C21.1178 58.5004 21.4584 58.5984 21.8224 58.5984ZM26.7036 59.7324V52.6904H27.8936L28.0336 53.4184H28.1036C28.281 53.1944 28.5283 52.9938 28.8456 52.8164C29.163 52.6391 29.5083 52.5504 29.8816 52.5504C30.367 52.5504 30.787 52.6671 31.1416 52.9004C31.5056 53.1338 31.7576 53.3904 31.8976 53.6704H31.9676C32.1543 53.3811 32.4483 53.1244 32.8496 52.9004C33.2603 52.6671 33.7176 52.5504 34.2216 52.5504C34.707 52.5504 35.141 52.6718 35.5236 52.9144C35.9156 53.1478 36.2236 53.4744 36.4476 53.8944C36.6716 54.3144 36.7836 54.7951 36.7836 55.3364V59.7324H35.3976V55.4204C35.3976 54.9351 35.267 54.5524 35.0056 54.2724C34.7536 53.9924 34.413 53.8524 33.9836 53.8524C33.5636 53.8524 33.1996 54.0064 32.8916 54.3144C32.5836 54.6131 32.4296 54.9818 32.4296 55.4204V59.7324H31.0576V55.4204C31.0576 54.9444 30.927 54.5664 30.6656 54.2864C30.4043 53.9971 30.059 53.8524 29.6296 53.8524C29.2096 53.8524 28.8456 54.0064 28.5376 54.3144C28.239 54.6131 28.0896 54.9818 28.0896 55.4204V59.7324H26.7036ZM40.0115 59.7324H38.6255V52.6904H40.0115V59.7324ZM40.0815 51.3604H38.5695V49.9604H40.0815V51.3604ZM43.9371 59.7324C43.4611 59.7324 43.0877 59.6064 42.8171 59.3544C42.5557 59.0931 42.4251 58.7431 42.4251 58.3044V53.9924H41.3051V52.6904H42.4251V50.6464H43.8111V52.6904H45.4211V53.9924H43.8111V58.0244C43.8111 58.3138 43.9557 58.4584 44.2451 58.4584H45.4211V59.7324H43.9371ZM48.8316 59.7324C48.3556 59.7324 47.9823 59.6064 47.7116 59.3544C47.4503 59.0931 47.3196 58.7431 47.3196 58.3044V53.9924H46.1996V52.6904H47.3196V50.6464H48.7056V52.6904H50.3156V53.9924H48.7056V58.0244C48.7056 58.3138 48.8503 58.4584 49.1396 58.4584H50.3156V59.7324H48.8316ZM54.6938 59.8724C54.0404 59.8724 53.4478 59.7184 52.9158 59.4104C52.3838 59.0931 51.9638 58.6591 51.6558 58.1084C51.3571 57.5484 51.2078 56.9138 51.2078 56.2044C51.2078 55.5044 51.3571 54.8791 51.6558 54.3284C51.9638 53.7684 52.3838 53.3344 52.9158 53.0264C53.4478 52.7091 54.0404 52.5504 54.6938 52.5504C55.3191 52.5504 55.8838 52.6998 56.3878 52.9984C56.9011 53.2971 57.3024 53.7078 57.5918 54.2304C57.8904 54.7531 58.0398 55.3411 58.0398 55.9944C58.0398 56.3211 58.0164 56.5684 57.9698 56.7364H52.5938C52.6591 57.3058 52.8878 57.7724 53.2798 58.1364C53.6718 58.4911 54.1431 58.6684 54.6938 58.6684C55.0858 58.6684 55.4311 58.5798 55.7298 58.4024C56.0284 58.2251 56.2524 57.9964 56.4018 57.7164H57.8438C57.6291 58.3418 57.2511 58.8598 56.7098 59.2704C56.1684 59.6718 55.4964 59.8724 54.6938 59.8724ZM56.6678 55.6724C56.6211 55.1124 56.4158 54.6504 56.0518 54.2864C55.6878 53.9224 55.2351 53.7404 54.6938 53.7404C54.1338 53.7404 53.6624 53.9224 53.2798 54.2864C52.8971 54.6504 52.6684 55.1124 52.5938 55.6724H56.6678ZM62.3858 59.8724C61.7791 59.8724 61.2285 59.7184 60.7338 59.4104C60.2391 59.1024 59.8471 58.6684 59.5578 58.1084C59.2685 57.5484 59.1238 56.9138 59.1238 56.2044C59.1238 55.4951 59.2685 54.8651 59.5578 54.3144C59.8471 53.7544 60.2391 53.3204 60.7338 53.0124C61.2285 52.7044 61.7791 52.5504 62.3858 52.5504C63.2725 52.5504 63.9818 52.8864 64.5138 53.5584H64.5838V49.9324H65.9698V59.7324H64.7798L64.6398 58.8364H64.5698C64.0285 59.5271 63.3005 59.8724 62.3858 59.8724ZM62.5538 58.5844C62.9178 58.5844 63.2538 58.4864 63.5618 58.2904C63.8791 58.0944 64.1265 57.8144 64.3038 57.4504C64.4905 57.0864 64.5838 56.6711 64.5838 56.2044C64.5838 55.7378 64.4905 55.3271 64.3038 54.9724C64.1265 54.6084 63.8791 54.3284 63.5618 54.1324C63.2538 53.9364 62.9178 53.8384 62.5538 53.8384C62.1805 53.8384 61.8398 53.9364 61.5318 54.1324C61.2238 54.3284 60.9765 54.6084 60.7898 54.9724C60.6125 55.3271 60.5238 55.7378 60.5238 56.2044C60.5238 56.6804 60.6125 57.1004 60.7898 57.4644C60.9765 57.8191 61.2238 58.0944 61.5318 58.2904C61.8398 58.4864 62.1805 58.5844 62.5538 58.5844Z" fill="#3558CF"/>
<path d="M179.717 18.3653C179.717 8.22293 187.939 0 198.082 0C208.226 0 216.45 8.22368 216.45 18.3681C216.45 28.5104 208.227 36.7324 198.084 36.7324C187.941 36.7324 179.717 28.5086 179.717 18.3653Z" fill="#3558CF"/>
<path d="M191.629 18.3658L196.323 23.0597L204.538 13.6719" stroke="#EAF6FF" stroke-width="2" stroke-linecap="round" stroke-linejoin="round"/>
<path d="M163.868 59.7324V49.9324H168.222C168.772 49.9324 169.272 50.0678 169.72 50.3384C170.168 50.5998 170.518 50.9684 170.77 51.4444C171.031 51.9204 171.162 52.4618 171.162 53.0684C171.162 53.6751 171.031 54.2211 170.77 54.7064C170.518 55.1824 170.168 55.5558 169.72 55.8264C169.272 56.0878 168.772 56.2184 168.222 56.2184H165.338V59.7324H163.868ZM168.18 54.8184C168.6 54.8184 168.954 54.6598 169.244 54.3424C169.542 54.0158 169.692 53.5911 169.692 53.0684C169.692 52.5458 169.547 52.1258 169.258 51.8084C168.968 51.4911 168.609 51.3324 168.18 51.3324H165.338V54.8184H168.18ZM172.724 59.7324V52.6904H173.914L174.054 53.3484H174.124C174.264 53.1338 174.432 52.9704 174.628 52.8584C174.833 52.7464 175.104 52.6904 175.44 52.6904H176.672V53.9924H175.566C175.099 53.9924 174.74 54.1184 174.488 54.3704C174.236 54.6224 174.11 54.9818 174.11 55.4484V59.7324H172.724ZM180.726 59.8724C180.072 59.8724 179.48 59.7184 178.948 59.4104C178.416 59.0931 177.996 58.6591 177.688 58.1084C177.389 57.5484 177.24 56.9138 177.24 56.2044C177.24 55.5044 177.389 54.8791 177.688 54.3284C177.996 53.7684 178.416 53.3344 178.948 53.0264C179.48 52.7091 180.072 52.5504 180.726 52.5504C181.379 52.5504 181.967 52.7091 182.49 53.0264C183.022 53.3344 183.437 53.7684 183.736 54.3284C184.044 54.8791 184.198 55.5044 184.198 56.2044C184.198 56.9138 184.044 57.5484 183.736 58.1084C183.437 58.6591 183.022 59.0931 182.49 59.4104C181.967 59.7184 181.379 59.8724 180.726 59.8724ZM180.726 58.5844C181.108 58.5844 181.458 58.4864 181.776 58.2904C182.102 58.0944 182.359 57.8144 182.546 57.4504C182.732 57.0864 182.826 56.6711 182.826 56.2044C182.826 55.7378 182.732 55.3271 182.546 54.9724C182.359 54.6084 182.102 54.3284 181.776 54.1324C181.458 53.9364 181.108 53.8384 180.726 53.8384C180.343 53.8384 179.988 53.9364 179.662 54.1324C179.344 54.3284 179.092 54.6084 178.906 54.9724C178.719 55.3271 178.626 55.7378 178.626 56.2044C178.626 56.6711 178.719 57.0864 178.906 57.4504C179.092 57.8144 179.344 58.0944 179.662 58.2904C179.988 58.4864 180.343 58.5844 180.726 58.5844ZM188.765 59.8724C188.111 59.8724 187.519 59.7184 186.987 59.4104C186.455 59.0931 186.035 58.6591 185.727 58.1084C185.428 57.5484 185.279 56.9138 185.279 56.2044C185.279 55.5044 185.428 54.8791 185.727 54.3284C186.035 53.7684 186.455 53.3344 186.987 53.0264C187.519 52.7091 188.111 52.5504 188.765 52.5504C189.614 52.5504 190.323 52.7884 190.893 53.2644C191.462 53.7404 191.831 54.3518 191.999 55.0984H190.599C190.477 54.7064 190.258 54.3984 189.941 54.1744C189.623 53.9504 189.231 53.8384 188.765 53.8384C188.382 53.8384 188.032 53.9364 187.715 54.1324C187.397 54.3284 187.145 54.6084 186.959 54.9724C186.772 55.3271 186.679 55.7378 186.679 56.2044C186.679 56.6711 186.772 57.0864 186.959 57.4504C187.145 57.8144 187.397 58.0944 187.715 58.2904C188.032 58.4864 188.382 58.5844 188.765 58.5844C189.231 58.5844 189.623 58.4678 189.941 58.2344C190.258 58.0011 190.477 57.6791 190.599 57.2684H191.999C191.831 58.0338 191.462 58.6591 190.893 59.1444C190.323 59.6298 189.614 59.8724 188.765 59.8724ZM196.476 59.8724C195.822 59.8724 195.23 59.7184 194.698 59.4104C194.166 59.0931 193.746 58.6591 193.438 58.1084C193.139 57.5484 192.99 56.9138 192.99 56.2044C192.99 55.5044 193.139 54.8791 193.438 54.3284C193.746 53.7684 194.166 53.3344 194.698 53.0264C195.23 52.7091 195.822 52.5504 196.476 52.5504C197.101 52.5504 197.666 52.6998 198.17 52.9984C198.683 53.2971 199.084 53.7078 199.374 54.2304C199.672 54.7531 199.822 55.3411 199.822 55.9944C199.822 56.3211 199.798 56.5684 199.752 56.7364H194.376C194.441 57.3058 194.67 57.7724 195.062 58.1364C195.454 58.4911 195.925 58.6684 196.476 58.6684C196.868 58.6684 197.213 58.5798 197.512 58.4024C197.81 58.2251 198.034 57.9964 198.184 57.7164H199.626C199.411 58.3418 199.033 58.8598 198.492 59.2704C197.95 59.6718 197.278 59.8724 196.476 59.8724ZM198.45 55.6724C198.403 55.1124 198.198 54.6504 197.834 54.2864C197.47 53.9224 197.017 53.7404 196.476 53.7404C195.916 53.7404 195.444 53.9224 195.062 54.2864C194.679 54.6504 194.45 55.1124 194.376 55.6724H198.45ZM203.706 59.8724C203.08 59.8724 202.544 59.7604 202.096 59.5364C201.657 59.3124 201.326 59.0324 201.102 58.6964C200.878 58.3511 200.766 58.0011 200.766 57.6464H202.138C202.138 57.9358 202.273 58.1831 202.544 58.3884C202.824 58.5938 203.211 58.6964 203.706 58.6964C204.2 58.6964 204.574 58.6124 204.826 58.4444C205.087 58.2671 205.218 58.0478 205.218 57.7864C205.218 57.5344 205.134 57.3338 204.966 57.1844C204.798 57.0351 204.522 56.9278 204.14 56.8624L202.992 56.6664C201.582 56.4238 200.878 55.7518 200.878 54.6504C200.878 54.0438 201.116 53.5444 201.592 53.1524C202.068 52.7511 202.749 52.5504 203.636 52.5504C204.224 52.5504 204.732 52.6578 205.162 52.8724C205.6 53.0871 205.932 53.3624 206.156 53.6984C206.389 54.0344 206.506 54.3891 206.506 54.7624H205.148C205.148 54.4731 205.008 54.2304 204.728 54.0344C204.457 53.8291 204.093 53.7264 203.636 53.7264C203.188 53.7264 202.842 53.8151 202.6 53.9924C202.366 54.1698 202.25 54.3891 202.25 54.6504C202.25 54.8651 202.329 55.0424 202.488 55.1824C202.656 55.3224 202.922 55.4251 203.286 55.4904L204.448 55.6864C205.176 55.8078 205.712 56.0411 206.058 56.3864C206.412 56.7318 206.59 57.1938 206.59 57.7724C206.59 58.3791 206.338 58.8831 205.834 59.2844C205.339 59.6764 204.63 59.8724 203.706 59.8724ZM210.391 59.8724C209.766 59.8724 209.229 59.7604 208.781 59.5364C208.342 59.3124 208.011 59.0324 207.787 58.6964C207.563 58.3511 207.451 58.0011 207.451 57.6464H208.823C208.823 57.9358 208.958 58.1831 209.229 58.3884C209.509 58.5938 209.896 58.6964 210.391 58.6964C210.886 58.6964 211.259 58.6124 211.511 58.4444C211.772 58.2671 211.903 58.0478 211.903 57.7864C211.903 57.5344 211.819 57.3338 211.651 57.1844C211.483 57.0351 211.208 56.9278 210.825 56.8624L209.677 56.6664C208.268 56.4238 207.563 55.7518 207.563 54.6504C207.563 54.0438 207.801 53.5444 208.277 53.1524C208.753 52.7511 209.434 52.5504 210.321 52.5504C210.909 52.5504 211.418 52.6578 211.847 52.8724C212.286 53.0871 212.617 53.3624 212.841 53.6984C213.074 54.0344 213.191 54.3891 213.191 54.7624H211.833C211.833 54.4731 211.693 54.2304 211.413 54.0344C211.142 53.8291 210.778 53.7264 210.321 53.7264C209.873 53.7264 209.528 53.8151 209.285 53.9924C209.052 54.1698 208.935 54.3891 208.935 54.6504C208.935 54.8651 209.014 55.0424 209.173 55.1824C209.341 55.3224 209.607 55.4251 209.971 55.4904L211.133 55.6864C211.861 55.8078 212.398 56.0411 212.743 56.3864C213.098 56.7318 213.275 57.1938 213.275 57.7724C213.275 58.3791 213.023 58.8831 212.519 59.2844C212.024 59.6764 211.315 59.8724 210.391 59.8724ZM216.069 59.7324H214.683V52.6904H216.069V59.7324ZM216.139 51.3604H214.627V49.9604H216.139V51.3604ZM217.95 59.7324V52.6904H219.14L219.28 53.4184H219.35C219.528 53.1944 219.798 52.9938 220.162 52.8164C220.526 52.6391 220.946 52.5504 221.422 52.5504C221.964 52.5504 222.444 52.6764 222.864 52.9284C223.294 53.1711 223.625 53.5164 223.858 53.9644C224.101 54.4124 224.222 54.9258 224.222 55.5044V59.7324H222.836V55.6164C222.836 55.1124 222.673 54.6924 222.346 54.3564C222.02 54.0204 221.614 53.8524 221.128 53.8524C220.802 53.8524 220.498 53.9318 220.218 54.0904C219.948 54.2491 219.733 54.4638 219.574 54.7344C219.416 55.0051 219.336 55.2991 219.336 55.6164V59.7324H217.95ZM229.165 62.6724C228.484 62.6724 227.901 62.5464 227.415 62.2944C226.939 62.0424 226.575 61.7251 226.323 61.3424C226.071 60.9691 225.936 60.5864 225.917 60.1944H227.317C227.355 60.5211 227.532 60.8058 227.849 61.0484C228.167 61.3004 228.605 61.4264 229.165 61.4264C229.744 61.4264 230.206 61.2631 230.551 60.9364C230.897 60.6098 231.069 60.1758 231.069 59.6344V58.5144H230.999C230.757 58.7851 230.453 58.9998 230.089 59.1584C229.725 59.3171 229.324 59.3964 228.885 59.3964C228.279 59.3964 227.728 59.2518 227.233 58.9624C226.748 58.6731 226.365 58.2671 226.085 57.7444C225.805 57.2218 225.665 56.6291 225.665 55.9664C225.665 55.3038 225.805 54.7158 226.085 54.2024C226.365 53.6798 226.748 53.2738 227.233 52.9844C227.728 52.6951 228.279 52.5504 228.885 52.5504C229.333 52.5504 229.744 52.6391 230.117 52.8164C230.5 52.9938 230.808 53.2318 231.041 53.5304H231.111L231.251 52.6904H232.455V59.6484C232.455 60.2458 232.325 60.7731 232.063 61.2304C231.802 61.6878 231.419 62.0424 230.915 62.2944C230.421 62.5464 229.837 62.6724 229.165 62.6724ZM229.067 58.1364C229.441 58.1364 229.777 58.0478 230.075 57.8704C230.383 57.6838 230.626 57.4271 230.803 57.1004C230.981 56.7644 231.069 56.3864 231.069 55.9664C231.069 55.5464 230.981 55.1731 230.803 54.8464C230.626 54.5198 230.383 54.2678 230.075 54.0904C229.777 53.9038 229.441 53.8104 229.067 53.8104C228.489 53.8104 228.008 54.0111 227.625 54.4124C227.252 54.8138 227.065 55.3318 227.065 55.9664C227.065 56.6104 227.252 57.1331 227.625 57.5344C228.008 57.9358 228.489 58.1364 229.067 58.1364Z" fill="#3558CF"/>
<path d="M341.05 18.3653C341.05 8.22293 349.272 0 359.415 0C369.559 0 377.783 8.22368 377.783 18.3681C377.783 28.5104 369.56 36.7324 359.417 36.7324C349.274 36.7324 341.05 28.5086 341.05 18.3653Z" fill="#3558CF"/>
<path d="M352.962 18.3658L357.656 23.0597L365.871 13.6719" stroke="#EAF6FF" stroke-width="2" stroke-linecap="round" stroke-linejoin="round"/>
<path d="M335.837 59.7324H329.411V49.9324H335.837V51.2904H330.881V54.1464H335.557V55.4764H330.881V58.3744H335.837V59.7324ZM339.923 59.8724C339.298 59.8724 338.761 59.7604 338.313 59.5364C337.875 59.3124 337.543 59.0324 337.319 58.6964C337.095 58.3511 336.983 58.0011 336.983 57.6464H338.355C338.355 57.9358 338.491 58.1831 338.761 58.3884C339.041 58.5938 339.429 58.6964 339.923 58.6964C340.418 58.6964 340.791 58.6124 341.043 58.4444C341.305 58.2671 341.435 58.0478 341.435 57.7864C341.435 57.5344 341.351 57.3338 341.183 57.1844C341.015 57.0351 340.74 56.9278 340.357 56.8624L339.209 56.6664C337.8 56.4238 337.095 55.7518 337.095 54.6504C337.095 54.0438 337.333 53.5444 337.809 53.1524C338.285 52.7511 338.967 52.5504 339.853 52.5504C340.441 52.5504 340.95 52.6578 341.379 52.8724C341.818 53.0871 342.149 53.3624 342.373 53.6984C342.607 54.0344 342.723 54.3891 342.723 54.7624H341.365C341.365 54.4731 341.225 54.2304 340.945 54.0344C340.675 53.8291 340.311 53.7264 339.853 53.7264C339.405 53.7264 339.06 53.8151 338.817 53.9924C338.584 54.1698 338.467 54.3891 338.467 54.6504C338.467 54.8651 338.547 55.0424 338.705 55.1824C338.873 55.3224 339.139 55.4251 339.503 55.4904L340.665 55.6864C341.393 55.8078 341.93 56.0411 342.275 56.3864C342.63 56.7318 342.807 57.1938 342.807 57.7724C342.807 58.3791 342.555 58.8831 342.051 59.2844C341.557 59.6764 340.847 59.8724 339.923 59.8724ZM347.295 59.8724C346.642 59.8724 346.049 59.7184 345.517 59.4104C344.985 59.0931 344.565 58.6591 344.257 58.1084C343.958 57.5484 343.809 56.9138 343.809 56.2044C343.809 55.5044 343.958 54.8791 344.257 54.3284C344.565 53.7684 344.985 53.3344 345.517 53.0264C346.049 52.7091 346.642 52.5504 347.295 52.5504C348.144 52.5504 348.854 52.7884 349.423 53.2644C349.992 53.7404 350.361 54.3518 350.529 55.0984H349.129C349.008 54.7064 348.788 54.3984 348.471 54.1744C348.154 53.9504 347.762 53.8384 347.295 53.8384C346.912 53.8384 346.562 53.9364 346.245 54.1324C345.928 54.3284 345.676 54.6084 345.489 54.9724C345.302 55.3271 345.209 55.7378 345.209 56.2044C345.209 56.6711 345.302 57.0864 345.489 57.4504C345.676 57.8144 345.928 58.0944 346.245 58.2904C346.562 58.4864 346.912 58.5844 347.295 58.5844C347.762 58.5844 348.154 58.4678 348.471 58.2344C348.788 58.0011 349.008 57.6791 349.129 57.2684H350.529C350.361 58.0338 349.992 58.6591 349.423 59.1444C348.854 59.6298 348.144 59.8724 347.295 59.8724ZM354.124 59.8724C353.629 59.8724 353.19 59.7791 352.808 59.5924C352.425 59.3964 352.131 59.1351 351.926 58.8084C351.72 58.4724 351.618 58.0991 351.618 57.6884C351.618 56.9978 351.856 56.4471 352.332 56.0364C352.808 55.6258 353.517 55.4204 354.46 55.4204H356.252V55.2384C356.252 54.7811 356.116 54.4171 355.846 54.1464C355.584 53.8758 355.225 53.7404 354.768 53.7404C354.329 53.7404 353.974 53.8431 353.704 54.0484C353.433 54.2444 353.274 54.4824 353.228 54.7624H351.87C351.898 54.3798 352.028 54.0204 352.262 53.6844C352.495 53.3391 352.826 53.0638 353.256 52.8584C353.685 52.6531 354.189 52.5504 354.768 52.5504C355.645 52.5504 356.34 52.7931 356.854 53.2784C357.376 53.7638 357.638 54.4171 357.638 55.2384V59.7324H356.434L356.294 58.9624H356.224C356.065 59.1958 355.799 59.4058 355.426 59.5924C355.052 59.7791 354.618 59.8724 354.124 59.8724ZM354.264 58.6824C354.88 58.6824 355.365 58.5144 355.72 58.1784C356.074 57.8331 356.252 57.3664 356.252 56.7784V56.5264H354.558C354.035 56.5264 353.643 56.6291 353.382 56.8344C353.13 57.0398 353.004 57.3058 353.004 57.6324C353.004 57.9498 353.111 58.2064 353.326 58.4024C353.55 58.5891 353.862 58.6824 354.264 58.6824ZM360.942 59.7324H359.556V49.9324H360.942V59.7324ZM365.089 59.8724C364.594 59.8724 364.155 59.7791 363.773 59.5924C363.39 59.3964 363.096 59.1351 362.891 58.8084C362.685 58.4724 362.583 58.0991 362.583 57.6884C362.583 56.9978 362.821 56.4471 363.297 56.0364C363.773 55.6258 364.482 55.4204 365.425 55.4204H367.217V55.2384C367.217 54.7811 367.081 54.4171 366.811 54.1464C366.549 53.8758 366.19 53.7404 365.733 53.7404C365.294 53.7404 364.939 53.8431 364.669 54.0484C364.398 54.2444 364.239 54.4824 364.193 54.7624H362.835C362.863 54.3798 362.993 54.0204 363.227 53.6844C363.46 53.3391 363.791 53.0638 364.221 52.8584C364.65 52.6531 365.154 52.5504 365.733 52.5504C366.61 52.5504 367.305 52.7931 367.819 53.2784C368.341 53.7638 368.603 54.4171 368.603 55.2384V59.7324H367.399L367.259 58.9624H367.189C367.03 59.1958 366.764 59.4058 366.391 59.5924C366.017 59.7791 365.583 59.8724 365.089 59.8724ZM365.229 58.6824C365.845 58.6824 366.33 58.5144 366.685 58.1784C367.039 57.8331 367.217 57.3664 367.217 56.7784V56.5264H365.523C365 56.5264 364.608 56.6291 364.347 56.8344C364.095 57.0398 363.969 57.3058 363.969 57.6324C363.969 57.9498 364.076 58.2064 364.291 58.4024C364.515 58.5891 364.827 58.6824 365.229 58.6824ZM372.358 59.7324C371.882 59.7324 371.509 59.6064 371.238 59.3544C370.977 59.0931 370.846 58.7431 370.846 58.3044V53.9924H369.726V52.6904H370.846V50.6464H372.232V52.6904H373.842V53.9924H372.232V58.0244C372.232 58.3138 372.377 58.4584 372.666 58.4584H373.842V59.7324H372.358ZM378.221 59.8724C377.567 59.8724 376.975 59.7184 376.443 59.4104C375.911 59.0931 375.491 58.6591 375.183 58.1084C374.884 57.5484 374.735 56.9138 374.735 56.2044C374.735 55.5044 374.884 54.8791 375.183 54.3284C375.491 53.7684 375.911 53.3344 376.443 53.0264C376.975 52.7091 377.567 52.5504 378.221 52.5504C378.846 52.5504 379.411 52.6998 379.915 52.9984C380.428 53.2971 380.829 53.7078 381.119 54.2304C381.417 54.7531 381.567 55.3411 381.567 55.9944C381.567 56.3211 381.543 56.5684 381.497 56.7364H376.121C376.186 57.3058 376.415 57.7724 376.807 58.1364C377.199 58.4911 377.67 58.6684 378.221 58.6684C378.613 58.6684 378.958 58.5798 379.257 58.4024C379.555 58.2251 379.779 57.9964 379.929 57.7164H381.371C381.156 58.3418 380.778 58.8598 380.237 59.2704C379.695 59.6718 379.023 59.8724 378.221 59.8724ZM380.195 55.6724C380.148 55.1124 379.943 54.6504 379.579 54.2864C379.215 53.9224 378.762 53.7404 378.221 53.7404C377.661 53.7404 377.189 53.9224 376.807 54.2864C376.424 54.6504 376.195 55.1124 376.121 55.6724H380.195ZM385.913 59.8724C385.306 59.8724 384.755 59.7184 384.261 59.4104C383.766 59.1024 383.374 58.6684 383.085 58.1084C382.795 57.5484 382.651 56.9138 382.651 56.2044C382.651 55.4951 382.795 54.8651 383.085 54.3144C383.374 53.7544 383.766 53.3204 384.261 53.0124C384.755 52.7044 385.306 52.5504 385.913 52.5504C386.799 52.5504 387.509 52.8864 388.041 53.5584H388.111V49.9324H389.497V59.7324H388.307L388.167 58.8364H388.097C387.555 59.5271 386.827 59.8724 385.913 59.8724ZM386.081 58.5844C386.445 58.5844 386.781 58.4864 387.089 58.2904C387.406 58.0944 387.653 57.8144 387.831 57.4504C388.017 57.0864 388.111 56.6711 388.111 56.2044C388.111 55.7378 388.017 55.3271 387.831 54.9724C387.653 54.6084 387.406 54.3284 387.089 54.1324C386.781 53.9364 386.445 53.8384 386.081 53.8384C385.707 53.8384 385.367 53.9364 385.059 54.1324C384.751 54.3284 384.503 54.6084 384.317 54.9724C384.139 55.3271 384.051 55.7378 384.051 56.2044C384.051 56.6804 384.139 57.1004 384.317 57.4644C384.503 57.8191 384.751 58.0944 385.059 58.2904C385.367 58.4864 385.707 58.5844 386.081 58.5844Z" fill="#3558CF"/>
<rect x="489.885" width="36.73" height="36.7324" rx="18.365" fill="#D9D9D9"/>
<path d="M511.151 24.3672H509.071V22.1112H503.967V20.3512L507.983 13.1672H511.151V20.2392H512.447V22.1112H511.151V24.3672ZM506.271 20.1592V20.2392H509.071V15.7112H508.751L506.271 20.1592Z" fill="white"/>
<path d="M491.874 59.8724C491.016 59.8724 490.227 59.6624 489.508 59.2424C488.79 58.8131 488.22 58.2158 487.8 57.4504C487.39 56.6851 487.184 55.8124 487.184 54.8324C487.184 53.8524 487.39 52.9798 487.8 52.2144C488.22 51.4491 488.79 50.8564 489.508 50.4364C490.227 50.0071 491.016 49.7924 491.874 49.7924C492.929 49.7924 493.844 50.0864 494.618 50.6744C495.402 51.2624 495.934 52.0651 496.214 53.0824H495.024C494.782 52.3824 494.38 51.8364 493.82 51.4444C493.26 51.0431 492.612 50.8424 491.874 50.8424C491.221 50.8424 490.619 51.0104 490.068 51.3464C489.527 51.6824 489.098 52.1538 488.78 52.7604C488.463 53.3671 488.304 54.0578 488.304 54.8324C488.304 55.6071 488.463 56.2978 488.78 56.9044C489.098 57.5111 489.527 57.9824 490.068 58.3184C490.619 58.6544 491.221 58.8224 491.874 58.8224C492.612 58.8224 493.26 58.6218 493.82 58.2204C494.38 57.8098 494.782 57.2404 495.024 56.5124H496.214C495.934 57.5578 495.402 58.3791 494.618 58.9764C493.844 59.5738 492.929 59.8724 491.874 59.8724ZM498.811 59.7324H497.761V49.9324H498.811V59.7324ZM503.775 59.8724C503.15 59.8724 502.581 59.7184 502.067 59.4104C501.554 59.1024 501.148 58.6731 500.849 58.1224C500.56 57.5718 500.415 56.9418 500.415 56.2324C500.415 55.5231 500.56 54.8931 500.849 54.3424C501.148 53.7918 501.554 53.3624 502.067 53.0544C502.581 52.7464 503.15 52.5924 503.775 52.5924C504.401 52.5924 504.97 52.7464 505.483 53.0544C505.997 53.3624 506.398 53.7918 506.687 54.3424C506.986 54.8931 507.135 55.5231 507.135 56.2324C507.135 56.9418 506.986 57.5718 506.687 58.1224C506.398 58.6731 505.997 59.1024 505.483 59.4104C504.97 59.7184 504.401 59.8724 503.775 59.8724ZM503.775 58.8924C504.195 58.8924 504.583 58.7851 504.937 58.5704C505.292 58.3464 505.572 58.0338 505.777 57.6324C505.983 57.2218 506.085 56.7551 506.085 56.2324C506.085 55.7098 505.983 55.2478 505.777 54.8464C505.572 54.4358 505.292 54.1231 504.937 53.9084C504.583 53.6844 504.195 53.5724 503.775 53.5724C503.355 53.5724 502.968 53.6844 502.613 53.9084C502.259 54.1231 501.979 54.4358 501.773 54.8464C501.568 55.2478 501.465 55.7098 501.465 56.2324C501.465 56.7551 501.568 57.2218 501.773 57.6324C501.979 58.0338 502.259 58.3464 502.613 58.5704C502.968 58.7851 503.355 58.8924 503.775 58.8924ZM510.909 59.8724C510.349 59.8724 509.855 59.7744 509.425 59.5784C509.005 59.3731 508.679 59.1071 508.445 58.7804C508.221 58.4444 508.109 58.0851 508.109 57.7024H509.159C509.159 58.0291 509.313 58.3091 509.621 58.5424C509.939 58.7758 510.368 58.8924 510.909 58.8924C511.441 58.8924 511.852 58.7944 512.141 58.5984C512.44 58.3931 512.589 58.1411 512.589 57.8424C512.589 57.5624 512.491 57.3384 512.295 57.1704C512.109 56.9931 511.81 56.8671 511.399 56.7924L510.209 56.5824C508.903 56.3584 508.249 55.7051 508.249 54.6224C508.249 54.0344 508.469 53.5491 508.907 53.1664C509.355 52.7838 509.999 52.5924 510.839 52.5924C511.381 52.5924 511.857 52.6951 512.267 52.9004C512.687 53.0964 513.009 53.3624 513.233 53.6984C513.457 54.0344 513.569 54.3891 513.569 54.7624H512.519C512.519 54.4358 512.365 54.1558 512.057 53.9224C511.749 53.6891 511.343 53.5724 510.839 53.5724C510.345 53.5724 509.962 53.6751 509.691 53.8804C509.43 54.0764 509.299 54.3238 509.299 54.6224C509.299 54.8838 509.383 55.0938 509.551 55.2524C509.729 55.4111 510.018 55.5278 510.419 55.6024L511.609 55.8124C512.309 55.9338 512.823 56.1624 513.149 56.4984C513.476 56.8344 513.639 57.2824 513.639 57.8424C513.639 58.4304 513.401 58.9158 512.925 59.2984C512.459 59.6811 511.787 59.8724 510.909 59.8724ZM518.049 59.8724C517.424 59.8724 516.854 59.7184 516.341 59.4104C515.828 59.1024 515.422 58.6731 515.123 58.1224C514.834 57.5718 514.689 56.9418 514.689 56.2324C514.689 55.5231 514.834 54.8931 515.123 54.3424C515.422 53.7918 515.828 53.3624 516.341 53.0544C516.854 52.7464 517.424 52.5924 518.049 52.5924C518.646 52.5924 519.192 52.7371 519.687 53.0264C520.182 53.3158 520.569 53.7171 520.849 54.2304C521.129 54.7344 521.269 55.3084 521.269 55.9524C521.269 56.3258 521.246 56.5824 521.199 56.7224H515.739C515.804 57.3758 516.056 57.9031 516.495 58.3044C516.934 58.6964 517.452 58.8924 518.049 58.8924C518.469 58.8924 518.842 58.7944 519.169 58.5984C519.505 58.4024 519.762 58.1271 519.939 57.7724H521.059C520.816 58.4444 520.434 58.9624 519.911 59.3264C519.398 59.6904 518.777 59.8724 518.049 59.8724ZM520.219 55.7424C520.182 55.1078 519.958 54.5898 519.547 54.1884C519.146 53.7778 518.646 53.5724 518.049 53.5724C517.424 53.5724 516.901 53.7778 516.481 54.1884C516.061 54.5898 515.814 55.1078 515.739 55.7424H520.219ZM525.606 59.8724C525 59.8724 524.449 59.7184 523.954 59.4104C523.469 59.1024 523.086 58.6731 522.806 58.1224C522.526 57.5718 522.386 56.9418 522.386 56.2324C522.386 55.5231 522.526 54.8931 522.806 54.3424C523.086 53.7918 523.469 53.3624 523.954 53.0544C524.449 52.7464 525 52.5924 525.606 52.5924C526.082 52.5924 526.502 52.6904 526.866 52.8864C527.23 53.0731 527.557 53.3484 527.846 53.7124H527.916V49.9324H528.966V59.7324H528.056L527.916 58.7524H527.846C527.557 59.1164 527.23 59.3964 526.866 59.5924C526.502 59.7791 526.082 59.8724 525.606 59.8724ZM525.676 58.8924C526.078 58.8924 526.446 58.7804 526.782 58.5564C527.128 58.3324 527.403 58.0198 527.608 57.6184C527.814 57.2171 527.916 56.7551 527.916 56.2324C527.916 55.7098 527.814 55.2478 527.608 54.8464C527.403 54.4451 527.128 54.1324 526.782 53.9084C526.446 53.6844 526.078 53.5724 525.676 53.5724C525.275 53.5724 524.902 53.6844 524.556 53.9084C524.22 54.1324 523.95 54.4451 523.744 54.8464C523.539 55.2478 523.436 55.7098 523.436 56.2324C523.436 56.7551 523.539 57.2171 523.744 57.6184C523.95 58.0198 524.22 58.3324 524.556 58.5564C524.902 58.7804 525.275 58.8924 525.676 58.8924Z" fill="#D9D9D9"/>
</svg>
